<mxfile host="Electron" agent="Mozilla/5.0 (Windows NT 10.0; Win64; x64) AppleWebKit/537.36 (KHTML, like Gecko) draw.io/24.7.8 Chrome/128.0.6613.36 Electron/32.0.1 Safari/537.36" version="24.7.8">
  <diagram name="Page-1" id="ImnSt9pvJv741JpKQfwK">
    <mxGraphModel dx="967" dy="1102" grid="1" gridSize="10" guides="1" tooltips="1" connect="1" arrows="1" fold="1" page="1" pageScale="1" pageWidth="850" pageHeight="1100" math="0" shadow="0">
      <root>
        <mxCell id="0" />
        <mxCell id="1" parent="0" />
        <mxCell id="9Z_j1j2K3WXjLXnxMmh4-1" value="Start" style="rounded=1;whiteSpace=wrap;html=1;" vertex="1" parent="1">
          <mxGeometry x="340" y="50" width="120" height="60" as="geometry" />
        </mxCell>
        <mxCell id="9Z_j1j2K3WXjLXnxMmh4-2" value="&quot;What&#39;s you&#39;re grade? &quot;" style="shape=card;whiteSpace=wrap;html=1;" vertex="1" parent="1">
          <mxGeometry x="325" y="160" width="150" height="60" as="geometry" />
        </mxCell>
        <mxCell id="9Z_j1j2K3WXjLXnxMmh4-13" value="" style="edgeStyle=orthogonalEdgeStyle;rounded=0;orthogonalLoop=1;jettySize=auto;html=1;" edge="1" parent="1" source="9Z_j1j2K3WXjLXnxMmh4-3" target="9Z_j1j2K3WXjLXnxMmh4-8">
          <mxGeometry relative="1" as="geometry">
            <Array as="points">
              <mxPoint x="140" y="400" />
              <mxPoint x="140" y="400" />
            </Array>
          </mxGeometry>
        </mxCell>
        <mxCell id="9Z_j1j2K3WXjLXnxMmh4-22" value="yes" style="edgeLabel;html=1;align=center;verticalAlign=middle;resizable=0;points=[];" vertex="1" connectable="0" parent="9Z_j1j2K3WXjLXnxMmh4-13">
          <mxGeometry x="0.2143" y="4" relative="1" as="geometry">
            <mxPoint as="offset" />
          </mxGeometry>
        </mxCell>
        <mxCell id="9Z_j1j2K3WXjLXnxMmh4-18" value="" style="edgeStyle=orthogonalEdgeStyle;rounded=0;orthogonalLoop=1;jettySize=auto;html=1;" edge="1" parent="1" source="9Z_j1j2K3WXjLXnxMmh4-3" target="9Z_j1j2K3WXjLXnxMmh4-7">
          <mxGeometry relative="1" as="geometry" />
        </mxCell>
        <mxCell id="9Z_j1j2K3WXjLXnxMmh4-27" value="no" style="edgeLabel;html=1;align=center;verticalAlign=middle;resizable=0;points=[];" vertex="1" connectable="0" parent="9Z_j1j2K3WXjLXnxMmh4-18">
          <mxGeometry x="-0.08" y="-1" relative="1" as="geometry">
            <mxPoint x="1" as="offset" />
          </mxGeometry>
        </mxCell>
        <mxCell id="9Z_j1j2K3WXjLXnxMmh4-3" value="0 &amp;lt;=\&amp;lt;= 40" style="rhombus;whiteSpace=wrap;html=1;" vertex="1" parent="1">
          <mxGeometry x="100" y="270" width="80" height="80" as="geometry" />
        </mxCell>
        <mxCell id="9Z_j1j2K3WXjLXnxMmh4-17" value="" style="edgeStyle=orthogonalEdgeStyle;rounded=0;orthogonalLoop=1;jettySize=auto;html=1;" edge="1" parent="1" source="9Z_j1j2K3WXjLXnxMmh4-4" target="9Z_j1j2K3WXjLXnxMmh4-12">
          <mxGeometry relative="1" as="geometry">
            <Array as="points">
              <mxPoint x="660" y="410" />
              <mxPoint x="660" y="410" />
            </Array>
          </mxGeometry>
        </mxCell>
        <mxCell id="9Z_j1j2K3WXjLXnxMmh4-26" value="yes" style="edgeLabel;html=1;align=center;verticalAlign=middle;resizable=0;points=[];" vertex="1" connectable="0" parent="9Z_j1j2K3WXjLXnxMmh4-17">
          <mxGeometry x="0.25" y="6" relative="1" as="geometry">
            <mxPoint as="offset" />
          </mxGeometry>
        </mxCell>
        <mxCell id="9Z_j1j2K3WXjLXnxMmh4-35" value="" style="edgeStyle=orthogonalEdgeStyle;rounded=0;orthogonalLoop=1;jettySize=auto;html=1;" edge="1" parent="1" source="9Z_j1j2K3WXjLXnxMmh4-4" target="9Z_j1j2K3WXjLXnxMmh4-31">
          <mxGeometry relative="1" as="geometry" />
        </mxCell>
        <mxCell id="9Z_j1j2K3WXjLXnxMmh4-36" value="no" style="edgeLabel;html=1;align=center;verticalAlign=middle;resizable=0;points=[];" vertex="1" connectable="0" parent="9Z_j1j2K3WXjLXnxMmh4-35">
          <mxGeometry x="0.1333" y="-5" relative="1" as="geometry">
            <mxPoint as="offset" />
          </mxGeometry>
        </mxCell>
        <mxCell id="9Z_j1j2K3WXjLXnxMmh4-4" value="96 &amp;lt;=\&amp;lt;= 100" style="rhombus;whiteSpace=wrap;html=1;" vertex="1" parent="1">
          <mxGeometry x="620" y="270" width="80" height="80" as="geometry" />
        </mxCell>
        <mxCell id="9Z_j1j2K3WXjLXnxMmh4-16" value="" style="edgeStyle=orthogonalEdgeStyle;rounded=0;orthogonalLoop=1;jettySize=auto;html=1;" edge="1" parent="1" source="9Z_j1j2K3WXjLXnxMmh4-5" target="9Z_j1j2K3WXjLXnxMmh4-11">
          <mxGeometry relative="1" as="geometry">
            <Array as="points">
              <mxPoint x="530" y="400" />
              <mxPoint x="530" y="400" />
            </Array>
          </mxGeometry>
        </mxCell>
        <mxCell id="9Z_j1j2K3WXjLXnxMmh4-25" value="yes" style="edgeLabel;html=1;align=center;verticalAlign=middle;resizable=0;points=[];" vertex="1" connectable="0" parent="9Z_j1j2K3WXjLXnxMmh4-16">
          <mxGeometry x="0.1071" y="6" relative="1" as="geometry">
            <mxPoint as="offset" />
          </mxGeometry>
        </mxCell>
        <mxCell id="9Z_j1j2K3WXjLXnxMmh4-21" value="" style="edgeStyle=orthogonalEdgeStyle;rounded=0;orthogonalLoop=1;jettySize=auto;html=1;" edge="1" parent="1" source="9Z_j1j2K3WXjLXnxMmh4-5" target="9Z_j1j2K3WXjLXnxMmh4-4">
          <mxGeometry relative="1" as="geometry" />
        </mxCell>
        <mxCell id="9Z_j1j2K3WXjLXnxMmh4-30" value="no" style="edgeLabel;html=1;align=center;verticalAlign=middle;resizable=0;points=[];" vertex="1" connectable="0" parent="9Z_j1j2K3WXjLXnxMmh4-21">
          <mxGeometry x="-0.18" y="4" relative="1" as="geometry">
            <mxPoint x="1" as="offset" />
          </mxGeometry>
        </mxCell>
        <mxCell id="9Z_j1j2K3WXjLXnxMmh4-5" value="81 &amp;lt;=\&amp;lt;= 95" style="rhombus;whiteSpace=wrap;html=1;" vertex="1" parent="1">
          <mxGeometry x="490" y="270" width="80" height="80" as="geometry" />
        </mxCell>
        <mxCell id="9Z_j1j2K3WXjLXnxMmh4-15" value="" style="edgeStyle=orthogonalEdgeStyle;rounded=0;orthogonalLoop=1;jettySize=auto;html=1;" edge="1" parent="1" source="9Z_j1j2K3WXjLXnxMmh4-6" target="9Z_j1j2K3WXjLXnxMmh4-10">
          <mxGeometry relative="1" as="geometry">
            <Array as="points">
              <mxPoint x="400" y="410" />
              <mxPoint x="400" y="410" />
            </Array>
          </mxGeometry>
        </mxCell>
        <mxCell id="9Z_j1j2K3WXjLXnxMmh4-24" value="yes" style="edgeLabel;html=1;align=center;verticalAlign=middle;resizable=0;points=[];" vertex="1" connectable="0" parent="9Z_j1j2K3WXjLXnxMmh4-15">
          <mxGeometry x="-0.0357" y="4" relative="1" as="geometry">
            <mxPoint as="offset" />
          </mxGeometry>
        </mxCell>
        <mxCell id="9Z_j1j2K3WXjLXnxMmh4-20" value="" style="edgeStyle=orthogonalEdgeStyle;rounded=0;orthogonalLoop=1;jettySize=auto;html=1;" edge="1" parent="1" source="9Z_j1j2K3WXjLXnxMmh4-6" target="9Z_j1j2K3WXjLXnxMmh4-5">
          <mxGeometry relative="1" as="geometry" />
        </mxCell>
        <mxCell id="9Z_j1j2K3WXjLXnxMmh4-29" value="no" style="edgeLabel;html=1;align=center;verticalAlign=middle;resizable=0;points=[];" vertex="1" connectable="0" parent="9Z_j1j2K3WXjLXnxMmh4-20">
          <mxGeometry x="-0.08" y="1" relative="1" as="geometry">
            <mxPoint x="1" as="offset" />
          </mxGeometry>
        </mxCell>
        <mxCell id="9Z_j1j2K3WXjLXnxMmh4-6" value="61 &amp;lt;=\&amp;lt;= 80" style="rhombus;whiteSpace=wrap;html=1;" vertex="1" parent="1">
          <mxGeometry x="360" y="270" width="80" height="80" as="geometry" />
        </mxCell>
        <mxCell id="9Z_j1j2K3WXjLXnxMmh4-14" value="" style="edgeStyle=orthogonalEdgeStyle;rounded=0;orthogonalLoop=1;jettySize=auto;html=1;" edge="1" parent="1" source="9Z_j1j2K3WXjLXnxMmh4-7" target="9Z_j1j2K3WXjLXnxMmh4-9">
          <mxGeometry relative="1" as="geometry" />
        </mxCell>
        <mxCell id="9Z_j1j2K3WXjLXnxMmh4-23" value="yes" style="edgeLabel;html=1;align=center;verticalAlign=middle;resizable=0;points=[];" vertex="1" connectable="0" parent="9Z_j1j2K3WXjLXnxMmh4-14">
          <mxGeometry x="0.0357" y="4" relative="1" as="geometry">
            <mxPoint as="offset" />
          </mxGeometry>
        </mxCell>
        <mxCell id="9Z_j1j2K3WXjLXnxMmh4-19" value="" style="edgeStyle=orthogonalEdgeStyle;rounded=0;orthogonalLoop=1;jettySize=auto;html=1;" edge="1" parent="1" source="9Z_j1j2K3WXjLXnxMmh4-7" target="9Z_j1j2K3WXjLXnxMmh4-6">
          <mxGeometry relative="1" as="geometry" />
        </mxCell>
        <mxCell id="9Z_j1j2K3WXjLXnxMmh4-28" value="no" style="edgeLabel;html=1;align=center;verticalAlign=middle;resizable=0;points=[];" vertex="1" connectable="0" parent="9Z_j1j2K3WXjLXnxMmh4-19">
          <mxGeometry x="-0.13" y="6" relative="1" as="geometry">
            <mxPoint x="1" as="offset" />
          </mxGeometry>
        </mxCell>
        <mxCell id="9Z_j1j2K3WXjLXnxMmh4-7" value="21 &amp;lt;=\&amp;lt;= 60" style="rhombus;whiteSpace=wrap;html=1;" vertex="1" parent="1">
          <mxGeometry x="230" y="270" width="80" height="80" as="geometry" />
        </mxCell>
        <mxCell id="9Z_j1j2K3WXjLXnxMmh4-41" style="edgeStyle=orthogonalEdgeStyle;rounded=0;orthogonalLoop=1;jettySize=auto;html=1;entryX=0.5;entryY=0;entryDx=0;entryDy=0;" edge="1" parent="1" source="9Z_j1j2K3WXjLXnxMmh4-8" target="9Z_j1j2K3WXjLXnxMmh4-39">
          <mxGeometry relative="1" as="geometry">
            <Array as="points">
              <mxPoint x="135" y="640" />
              <mxPoint x="400" y="640" />
            </Array>
          </mxGeometry>
        </mxCell>
        <mxCell id="9Z_j1j2K3WXjLXnxMmh4-8" value="grade" style="shape=document;whiteSpace=wrap;html=1;boundedLbl=1;" vertex="1" parent="1">
          <mxGeometry x="90" y="420" width="90" height="80" as="geometry" />
        </mxCell>
        <mxCell id="9Z_j1j2K3WXjLXnxMmh4-42" style="edgeStyle=orthogonalEdgeStyle;rounded=0;orthogonalLoop=1;jettySize=auto;html=1;entryX=0.5;entryY=0;entryDx=0;entryDy=0;" edge="1" parent="1" source="9Z_j1j2K3WXjLXnxMmh4-9" target="9Z_j1j2K3WXjLXnxMmh4-39">
          <mxGeometry relative="1" as="geometry">
            <mxPoint x="390" y="650" as="targetPoint" />
            <Array as="points">
              <mxPoint x="270" y="640" />
              <mxPoint x="400" y="640" />
            </Array>
          </mxGeometry>
        </mxCell>
        <mxCell id="9Z_j1j2K3WXjLXnxMmh4-9" value="grade" style="shape=document;whiteSpace=wrap;html=1;boundedLbl=1;" vertex="1" parent="1">
          <mxGeometry x="225" y="420" width="90" height="80" as="geometry" />
        </mxCell>
        <mxCell id="9Z_j1j2K3WXjLXnxMmh4-43" style="edgeStyle=orthogonalEdgeStyle;rounded=0;orthogonalLoop=1;jettySize=auto;html=1;entryX=0.5;entryY=0;entryDx=0;entryDy=0;" edge="1" parent="1" source="9Z_j1j2K3WXjLXnxMmh4-10" target="9Z_j1j2K3WXjLXnxMmh4-39">
          <mxGeometry relative="1" as="geometry">
            <Array as="points">
              <mxPoint x="400" y="540" />
              <mxPoint x="400" y="540" />
            </Array>
          </mxGeometry>
        </mxCell>
        <mxCell id="9Z_j1j2K3WXjLXnxMmh4-10" value="grade" style="shape=document;whiteSpace=wrap;html=1;boundedLbl=1;" vertex="1" parent="1">
          <mxGeometry x="360" y="420" width="90" height="80" as="geometry" />
        </mxCell>
        <mxCell id="9Z_j1j2K3WXjLXnxMmh4-44" style="edgeStyle=orthogonalEdgeStyle;rounded=0;orthogonalLoop=1;jettySize=auto;html=1;entryX=0.5;entryY=0;entryDx=0;entryDy=0;" edge="1" parent="1" source="9Z_j1j2K3WXjLXnxMmh4-11" target="9Z_j1j2K3WXjLXnxMmh4-39">
          <mxGeometry relative="1" as="geometry">
            <Array as="points">
              <mxPoint x="535" y="640" />
              <mxPoint x="400" y="640" />
            </Array>
          </mxGeometry>
        </mxCell>
        <mxCell id="9Z_j1j2K3WXjLXnxMmh4-11" value="grade" style="shape=document;whiteSpace=wrap;html=1;boundedLbl=1;" vertex="1" parent="1">
          <mxGeometry x="490" y="420" width="90" height="80" as="geometry" />
        </mxCell>
        <mxCell id="9Z_j1j2K3WXjLXnxMmh4-45" style="edgeStyle=orthogonalEdgeStyle;rounded=0;orthogonalLoop=1;jettySize=auto;html=1;entryX=0.5;entryY=0;entryDx=0;entryDy=0;" edge="1" parent="1" source="9Z_j1j2K3WXjLXnxMmh4-12" target="9Z_j1j2K3WXjLXnxMmh4-39">
          <mxGeometry relative="1" as="geometry">
            <Array as="points">
              <mxPoint x="665" y="640" />
              <mxPoint x="400" y="640" />
            </Array>
          </mxGeometry>
        </mxCell>
        <mxCell id="9Z_j1j2K3WXjLXnxMmh4-12" value="grade" style="shape=document;whiteSpace=wrap;html=1;boundedLbl=1;" vertex="1" parent="1">
          <mxGeometry x="620" y="420" width="90" height="80" as="geometry" />
        </mxCell>
        <mxCell id="9Z_j1j2K3WXjLXnxMmh4-34" value="" style="edgeStyle=orthogonalEdgeStyle;rounded=0;orthogonalLoop=1;jettySize=auto;html=1;" edge="1" parent="1" source="9Z_j1j2K3WXjLXnxMmh4-31" target="9Z_j1j2K3WXjLXnxMmh4-33">
          <mxGeometry relative="1" as="geometry">
            <Array as="points">
              <mxPoint x="790" y="400" />
              <mxPoint x="790" y="400" />
            </Array>
          </mxGeometry>
        </mxCell>
        <mxCell id="9Z_j1j2K3WXjLXnxMmh4-31" value="0 &amp;gt;\&amp;gt;100" style="rhombus;whiteSpace=wrap;html=1;" vertex="1" parent="1">
          <mxGeometry x="750" y="270" width="80" height="80" as="geometry" />
        </mxCell>
        <mxCell id="9Z_j1j2K3WXjLXnxMmh4-46" style="edgeStyle=orthogonalEdgeStyle;rounded=0;orthogonalLoop=1;jettySize=auto;html=1;entryX=0.5;entryY=0;entryDx=0;entryDy=0;" edge="1" parent="1" source="9Z_j1j2K3WXjLXnxMmh4-33" target="9Z_j1j2K3WXjLXnxMmh4-39">
          <mxGeometry relative="1" as="geometry">
            <Array as="points">
              <mxPoint x="795" y="640" />
              <mxPoint x="400" y="640" />
            </Array>
          </mxGeometry>
        </mxCell>
        <mxCell id="9Z_j1j2K3WXjLXnxMmh4-33" value="&quot;Invalid&quot;" style="shape=document;whiteSpace=wrap;html=1;boundedLbl=1;" vertex="1" parent="1">
          <mxGeometry x="750" y="420" width="90" height="80" as="geometry" />
        </mxCell>
        <mxCell id="9Z_j1j2K3WXjLXnxMmh4-39" value="End" style="rounded=1;whiteSpace=wrap;html=1;" vertex="1" parent="1">
          <mxGeometry x="340" y="660" width="120" height="60" as="geometry" />
        </mxCell>
      </root>
    </mxGraphModel>
  </diagram>
</mxfile>
